{
    "asset" : {
        "generator" : "Khronos glTF Blender I/O v1.5.17",
        "version" : "2.0"
    },
    "scene" : 0,
    "scenes" : [
        {
            "name" : "Scene",
            "nodes" : [
                0,
                1,
                2,
                3
            ]
        }
    ],
    "nodes" : [
        {
            "name" : "Light",
            "rotation" : [
                0.16907577216625214,
                0.7558802962303162,
                -0.27217137813568115,
                0.570947527885437
            ],
            "translation" : [
                4.076245307922363,
                5.903861999511719,
                -1.0054539442062378
            ]
        },
        {
            "name" : "Camera",
            "rotation" : [
                0.5,
                0.5,
                -0.5,
                0.4999999701976776
            ],
            "translation" : [
                21.32098960876465,
                3.8183093070983887,
                0
            ]
        },
        {
            "mesh" : 0,
            "name" : "Cylinder",
            "scale" : [
                0.6772844791412354,
                1.2815617322921753,
                0.6772844791412354
            ],
            "translation" : [
                0,
                5.342843055725098,
                0
            ]
        },
        {
            "mesh" : 1,
            "name" : "Circle",
            "rotation" : [
                0,
                0,
                -0.7071068286895752,
                0.7071068286895752
            ]
        }
    ],
    "materials" : [
        {
            "doubleSided" : true,
            "name" : "Material.002",
            "pbrMetallicRoughness" : {
                "baseColorFactor" : [
                    0.009734448976814747,
                    0.010021723806858063,
                    0.009809446521103382,
                    1
                ],
                "metallicFactor" : 0,
                "roughnessFactor" : 0.5
            }
        },
        {
            "doubleSided" : true,
            "name" : "Material.003",
            "pbrMetallicRoughness" : {
                "baseColorFactor" : [
                    0.45753154158592224,
                    0.45753154158592224,
                    0.45753154158592224,
                    1
                ],
                "metallicFactor" : 0.5,
                "roughnessFactor" : 0.5
            }
        },
        {
            "doubleSided" : true,
            "name" : "Material.004",
            "pbrMetallicRoughness" : {
                "baseColorFactor" : [
                    0.8000000715255737,
                    0.2750712037086487,
                    0.0013092043809592724,
                    1
                ],
                "metallicFactor" : 0.5,
                "roughnessFactor" : 0.5
            }
        }
    ],
    "meshes" : [
        {
            "name" : "Cylinder",
            "primitives" : [
                {
                    "attributes" : {
                        "POSITION" : 0,
                        "NORMAL" : 1,
                        "TEXCOORD_0" : 2
                    },
                    "indices" : 3,
                    "material" : 0
                },
                {
                    "attributes" : {
                        "POSITION" : 4,
                        "NORMAL" : 5,
                        "TEXCOORD_0" : 6
                    },
                    "indices" : 7,
                    "material" : 1
                }
            ]
        },
        {
            "name" : "Circle",
            "primitives" : [
                {
                    "attributes" : {
                        "POSITION" : 8,
                        "NORMAL" : 9,
                        "TEXCOORD_0" : 10
                    },
                    "indices" : 11,
                    "material" : 2
                }
            ]
        }
    ],
    "accessors" : [
        {
            "bufferView" : 0,
            "componentType" : 5126,
            "count" : 104,
            "max" : [
                1.3229132890701294,
                1.8447368144989014,
                1.3229132890701294
            ],
            "min" : [
                -1.3229131698608398,
                -1.4354193210601807,
                -1.3229132890701294
            ],
            "type" : "VEC3"
        },
        {
            "bufferView" : 1,
            "componentType" : 5126,
            "count" : 104,
            "type" : "VEC3"
        },
        {
            "bufferView" : 2,
            "componentType" : 5126,
            "count" : 104,
            "type" : "VEC2"
        },
        {
            "bufferView" : 3,
            "componentType" : 5123,
            "count" : 162,
            "type" : "SCALAR"
        },
        {
            "bufferView" : 4,
            "componentType" : 5126,
            "count" : 72,
            "max" : [
                0.24988965690135956,
                -1.4354193210601807,
                0.24988658726215363
            ],
            "min" : [
                -0.24988652765750885,
                -4.133508205413818,
                -0.2498866617679596
            ],
            "type" : "VEC3"
        },
        {
            "bufferView" : 5,
            "componentType" : 5126,
            "count" : 72,
            "type" : "VEC3"
        },
        {
            "bufferView" : 6,
            "componentType" : 5126,
            "count" : 72,
            "type" : "VEC2"
        },
        {
            "bufferView" : 7,
            "componentType" : 5123,
            "count" : 114,
            "type" : "SCALAR"
        },
        {
            "bufferView" : 8,
            "componentType" : 5126,
            "count" : 168,
            "max" : [
                -5.272762298583984,
                0.9019414186477661,
                1.035922884941101
            ],
            "min" : [
                -6.212752342224121,
                -1.0359231233596802,
                -1.035922884941101
            ],
            "type" : "VEC3"
        },
        {
            "bufferView" : 9,
            "componentType" : 5126,
            "count" : 168,
            "type" : "VEC3"
        },
        {
            "bufferView" : 10,
            "componentType" : 5126,
            "count" : 168,
            "type" : "VEC2"
        },
        {
            "bufferView" : 11,
            "componentType" : 5123,
            "count" : 258,
            "type" : "SCALAR"
        }
    ],
    "bufferViews" : [
        {
            "buffer" : 0,
            "byteLength" : 1248,
            "byteOffset" : 0
        },
        {
            "buffer" : 0,
            "byteLength" : 1248,
            "byteOffset" : 1248
        },
        {
            "buffer" : 0,
            "byteLength" : 832,
            "byteOffset" : 2496
        },
        {
            "buffer" : 0,
            "byteLength" : 324,
            "byteOffset" : 3328
        },
        {
            "buffer" : 0,
            "byteLength" : 864,
            "byteOffset" : 3652
        },
        {
            "buffer" : 0,
            "byteLength" : 864,
            "byteOffset" : 4516
        },
        {
            "buffer" : 0,
            "byteLength" : 576,
            "byteOffset" : 5380
        },
        {
            "buffer" : 0,
            "byteLength" : 228,
            "byteOffset" : 5956
        },
        {
            "buffer" : 0,
            "byteLength" : 2016,
            "byteOffset" : 6184
        },
        {
            "buffer" : 0,
            "byteLength" : 2016,
            "byteOffset" : 8200
        },
        {
            "buffer" : 0,
            "byteLength" : 1344,
            "byteOffset" : 10216
        },
        {
            "buffer" : 0,
            "byteLength" : 516,
            "byteOffset" : 11560
        }
    ],
    "buffers" : [
        {
            "byteLength" : 12076,
            "uri" : "data:application/octet-stream;base64,"
        }
    ]
}
